<?xml version="1.0" encoding="UTF-8" standalone="no"?>
<!-- Created with Inkscape (http://www.inkscape.org/) -->

<svg
   width="640"
   height="854"
   viewBox="0 0 169.33333 225.95417"
   version="1.1"
   id="svg1"
   inkscape:export-filename="hintergrund.png"
   inkscape:export-xdpi="96"
   inkscape:export-ydpi="96"
   xmlns:inkscape="http://www.inkscape.org/namespaces/inkscape"
   xmlns:sodipodi="http://sodipodi.sourceforge.net/DTD/sodipodi-0.dtd"
   xmlns="http://www.w3.org/2000/svg"
   xmlns:svg="http://www.w3.org/2000/svg">
  <sodipodi:namedview
     id="namedview1"
     pagecolor="#ffffff"
     bordercolor="#000000"
     borderopacity="0.25"
     inkscape:showpageshadow="2"
     inkscape:pageopacity="0.0"
     inkscape:pagecheckerboard="0"
     inkscape:deskcolor="#d1d1d1"
     inkscape:document-units="px"
     showguides="true">
    <inkscape:page
       x="0"
       y="0"
       width="169.33333"
       height="225.95416"
       id="page2"
       margin="0"
       bleed="0" />
  </sodipodi:namedview>
  <defs
     id="defs1" />
  <rect
     style="fill:#b8b8b8;fill-opacity:1;stroke-width:0.264583"
     id="rect28"
     width="104.86492"
     height="148.8519"
     x="34.485783"
     y="36.597157" />
  <g
     inkscape:label="Layer 1"
     inkscape:groupmode="layer"
     id="layer1">
    <path
       style="fill:#502b2b;fill-opacity:1;stroke-width:0.284311"
       d="m -2.2394508,228.59544 39.3114588,-51.62725 96.326102,-0.54924 38.79077,53.00034"
       id="path1" />
    <path
       style="fill:#884026;fill-opacity:1;stroke-width:0.264583"
       d="M 38.004739,178.76303 37.652843,39.060426 -2.8151658,-2.4632701 -1.4075829,228.73223 Z"
       id="path2" />
    <path
       style="fill:#884026;fill-opacity:1;stroke-width:0.264583"
       d="M 133.01659,178.76303 131.609,37.300947 175.24407,-4.5746445 173.83649,233.30687 Z"
       id="path3" />
    <path
       style="fill:#e1e1e1;fill-opacity:1;stroke-width:0.264583"
       d="M 36.949051,39.060426 132.66469,38.708531 180.17061,-5.6303317 -10.908768,-5.2784358 Z"
       id="path4" />
    <path
       style="fill:#000000;fill-opacity:1;stroke-width:0.264583"
       d="m 46.09834,52.784358 0.351896,57.359002 39.060427,-1.40758 -2.111375,-58.062794 z"
       id="path5" />
    <rect
       style="fill:#ffffff;fill-opacity:1;stroke-width:0.264583"
       id="rect5"
       width="15.924983"
       height="25.380442"
       x="47.401711"
       y="54.990959" />
    <rect
       style="fill:#ffffff;fill-opacity:1;stroke-width:0.264583"
       id="rect6"
       width="16.298225"
       height="25.753683"
       x="65.690552"
       y="54.866543" />
    <rect
       style="fill:#ffffff;fill-opacity:1;stroke-width:0.264583"
       id="rect7"
       width="15.800569"
       height="24.38513"
       x="47.650536"
       y="83.232918" />
    <rect
       style="fill:#ffffff;fill-opacity:1;stroke-width:0.264583"
       id="rect8"
       width="15.427327"
       height="23.887474"
       x="66.437035"
       y="83.48175" />
    <ellipse
       style="fill:#000000;fill-opacity:1;stroke-width:0.264583"
       id="path8"
       cx="106.36049"
       cy="73.106339"
       rx="12.580272"
       ry="12.932168" />
    <ellipse
       style="fill:#fffcfc;fill-opacity:1;stroke-width:0.352719"
       id="path9"
       cx="105.92062"
       cy="73.018356"
       rx="10.380924"
       ry="11.084715" />
    <circle
       style="fill:#000000;fill-opacity:1;stroke-width:0.264583"
       id="path11"
       cx="105.04087"
       cy="73.370262"
       r="1.407583" />
    <path
       style="fill:#000000;fill-opacity:1;stroke-width:0.264583"
       d="m 104.9529,71.258884 c -0.0734,-0.570603 -0.11564,-1.142275 -0.044,-1.715489 0.0314,-0.251159 0.10239,-0.496404 0.13197,-0.747779 0.0137,-0.116496 -0.008,-0.234897 0,-0.351896 0.0158,-0.221803 0.0568,-0.441632 0.088,-0.659804 0.0462,-0.323303 0,-0.686367 0,-1.011701 0,-0.08797 -0.0278,-0.180462 0,-0.263922 0.005,-0.01392 0.0336,0.01037 0.044,0 0.0207,-0.02074 0,-0.05865 0,-0.08797 0,-0.100944 0.045,-0.305792 0,-0.395883 -0.0544,-0.108709 -0.044,0.01519 -0.044,-0.08797 0,-0.212725 -0.19281,-0.57745 0.21993,-0.439869 0.38185,0.127283 0.26393,0.662347 0.26393,0.923726 0,0.43987 0.0152,0.880002 0,1.31961 -0.0172,0.49781 -0.13358,0.993978 -0.088,1.495557 0.0363,0.399693 0.088,0.78246 0.088,1.187648 0,0.08797 0.0191,0.178041 0,0.263922 -0.0201,0.09052 -0.0655,0.173956 -0.088,0.263922 -0.007,0.02845 0.0131,0.06174 0,0.08797 -0.0328,0.06557 -0.0992,0.110374 -0.13196,0.175945 -0.0131,0.02622 0.0176,0.06452 0,0.08797 -0.13978,0.186381 -0.26309,0.03178 -0.43987,-0.04399 z"
       id="path12" />
    <path
       style="fill:#000000;fill-opacity:1;stroke-width:0.264583"
       d="m 110.46696,72.661759 c 0.0587,0 0.17594,0.0587 0.17594,0 0,-0.0587 -0.19017,-0.0569 -0.17594,0 0.0356,0.14225 0.18258,0.2299 0.26392,0.3519 0.0179,0.0269 -0.0611,0.16251 -0.088,0.17595 -0.15068,0.0753 -0.72806,-0.0759 -0.87974,0 -0.17593,0.088 -0.35728,-0.0129 -0.52785,0.044 -0.0197,0.007 -0.0237,0.0399 -0.044,0.044 -0.13881,0.0278 -0.33987,0 -0.48385,0 -0.36656,0 -0.73312,0 -1.09968,0 -0.0734,0 -0.35148,0.0444 -0.39588,0 -0.0311,-0.0311 0.0197,-0.0926 0,-0.13196 -0.007,-0.0131 -0.0393,0.0139 -0.044,0 -0.0199,-0.0597 -0.0271,-0.31635 0.044,-0.3519 0.0262,-0.0131 0.0602,0.009 0.088,0 0.1952,-0.0651 0.4059,-0.044 0.61582,-0.044 0.21836,0 0.40649,0.009 0.61582,0.044 0.18491,0.0308 0.38559,-0.0207 0.57183,0 0.10657,0.0118 0.8859,0.0999 1.0117,0.044 0.11984,-0.0533 0.2346,-0.1173 0.35189,-0.17595 z"
       id="path13" />
    <text
       xml:space="preserve"
       style="font-size:3.175px;text-align:start;writing-mode:lr-tb;direction:ltr;text-anchor:start;fill:#000000;fill-opacity:1;stroke-width:0.264583"
       x="108.95571"
       y="66.200386"
       id="text14"><tspan
         sodipodi:role="line"
         id="tspan14"
         style="stroke-width:0.264583"
         x="108.95571"
         y="66.200386">1</tspan></text>
    <text
       xml:space="preserve"
       style="font-size:3.175px;text-align:start;writing-mode:lr-tb;direction:ltr;text-anchor:start;fill:#000000;fill-opacity:1;stroke-width:0.264583"
       x="112.21075"
       y="69.763321"
       id="text15"><tspan
         sodipodi:role="line"
         id="tspan15"
         style="stroke-width:0.264583"
         x="112.21075"
         y="69.763321">2</tspan></text>
    <text
       xml:space="preserve"
       style="font-size:3.175px;text-align:start;writing-mode:lr-tb;direction:ltr;text-anchor:start;fill:#000000;fill-opacity:1;stroke-width:0.264583"
       x="113.83826"
       y="74.162033"
       id="text16"><tspan
         sodipodi:role="line"
         id="tspan16"
         style="stroke-width:0.264583"
         x="113.83826"
         y="74.162033">3</tspan></text>
    <text
       xml:space="preserve"
       style="font-size:3.175px;text-align:start;writing-mode:lr-tb;direction:ltr;text-anchor:start;fill:#000000;fill-opacity:1;stroke-width:0.264583"
       x="112.95853"
       y="77.988892"
       id="text17"><tspan
         sodipodi:role="line"
         id="tspan17"
         style="stroke-width:0.264583"
         x="112.95853"
         y="77.988892">4</tspan></text>
    <text
       xml:space="preserve"
       style="font-size:3.175px;text-align:start;writing-mode:lr-tb;direction:ltr;text-anchor:start;fill:#000000;fill-opacity:1;stroke-width:0.264583"
       x="109.83545"
       y="81.991707"
       id="text18"><tspan
         sodipodi:role="line"
         id="tspan18"
         style="stroke-width:0.264583"
         x="109.83545"
         y="81.991707">5</tspan></text>
    <text
       xml:space="preserve"
       style="font-size:3.175px;text-align:start;writing-mode:lr-tb;direction:ltr;text-anchor:start;fill:#000000;fill-opacity:1;stroke-width:0.264583"
       x="105.21683"
       y="83.399292"
       id="text19"><tspan
         sodipodi:role="line"
         id="tspan19"
         style="stroke-width:0.264583"
         x="105.21683"
         y="83.399292">6</tspan></text>
    <text
       xml:space="preserve"
       style="font-size:3.175px;text-align:start;writing-mode:lr-tb;direction:ltr;text-anchor:start;fill:#000000;fill-opacity:1;stroke-width:0.264583"
       x="101.56591"
       y="82.387581"
       id="text20"><tspan
         sodipodi:role="line"
         id="tspan20"
         style="stroke-width:0.264583"
         x="101.56591"
         y="82.387581">7</tspan></text>
    <text
       xml:space="preserve"
       style="font-size:3.175px;text-align:start;writing-mode:lr-tb;direction:ltr;text-anchor:start;fill:#000000;fill-opacity:1;stroke-width:0.264583"
       x="98.090935"
       y="78.956604"
       id="text21"><tspan
         sodipodi:role="line"
         id="tspan21"
         style="stroke-width:0.264583"
         x="98.090935"
         y="78.956604">8</tspan></text>
    <text
       xml:space="preserve"
       style="font-size:3.175px;text-align:start;writing-mode:lr-tb;direction:ltr;text-anchor:start;fill:#000000;fill-opacity:1;stroke-width:0.264583"
       x="96.463425"
       y="74.425957"
       id="text22"><tspan
         sodipodi:role="line"
         id="tspan22"
         style="stroke-width:0.264583"
         x="96.463425"
         y="74.425957">9</tspan></text>
    <text
       xml:space="preserve"
       style="font-size:3.175px;text-align:start;writing-mode:lr-tb;direction:ltr;text-anchor:start;fill:#000000;fill-opacity:1;stroke-width:0.264583"
       x="96.991264"
       y="70.247185"
       id="text23"><tspan
         sodipodi:role="line"
         id="tspan23"
         style="stroke-width:0.264583"
         x="96.991264"
         y="70.247185">10</tspan></text>
    <text
       xml:space="preserve"
       style="font-size:3.175px;text-align:start;writing-mode:lr-tb;direction:ltr;text-anchor:start;fill:#000000;fill-opacity:1;stroke-width:0.264583"
       x="99.190605"
       y="66.860191"
       id="text24"><tspan
         sodipodi:role="line"
         id="tspan24"
         style="stroke-width:0.264583"
         x="99.190605"
         y="66.860191">11</tspan></text>
    <text
       xml:space="preserve"
       style="font-size:3.175px;text-align:start;writing-mode:lr-tb;direction:ltr;text-anchor:start;fill:#000000;fill-opacity:1;stroke-width:0.264583"
       x="103.72128"
       y="64.836792"
       id="text25"><tspan
         sodipodi:role="line"
         style="stroke-width:0.264583"
         x="103.72128"
         y="64.836792"
         id="tspan26">12</tspan></text>
    <path
       style="fill:#959595;fill-opacity:1;stroke-width:0.272289"
       d="m 133.08915,159.98103 c -0.89295,0.0148 -1.79363,0.0259 -2.68465,0.0901 -0.38262,0.0275 -1.89525,0.12883 -2.36612,0.31525 -0.0223,0.009 0.0173,0.14449 0.0455,0.27021 0.0662,0.29488 0.005,0.52412 -0.091,0.81064 -0.11659,0.34618 -0.25753,0.67363 -0.31852,1.03581 -0.0122,0.0724 0.0145,0.15324 0,0.22517 -0.11519,0.57005 0.0386,-0.25146 -0.13651,0.22518 -0.11304,0.30769 -0.14155,0.67048 -0.182,0.99077 -0.0272,0.21569 0.0672,0.74605 0,0.94574 -0.0108,0.0318 -0.0389,0.0571 -0.0455,0.0901 -0.0582,0.28798 -0.0249,0.63211 -0.18202,0.9007 -0.12016,0.20541 -0.26563,0.39557 -0.40952,0.58546 -0.38046,0.50206 -0.33693,0.39053 -1.18306,0.45035 -0.0614,0.004 -0.43184,-0.0448 -0.54604,-0.0901 -0.0314,-0.0125 -0.0116,-0.0901 -0.0455,-0.0901 -0.0152,0 0.0246,0.11153 0,0.27021 -0.0922,0.59309 -0.28039,1.1976 -0.31852,1.8014 -0.0224,0.35557 0.11189,1.37025 -0.091,1.62127 -0.12318,0.15239 -0.36816,-0.14097 -0.54603,-0.22517 -0.19059,-0.0902 -0.39062,-0.16056 -0.59153,-0.22518 -0.1957,-0.063 -1.15764,-0.5656 -1.45608,-0.27021 -0.0577,0.0571 -0.0607,0.15012 -0.091,0.22518 -0.12078,0.29882 -0.1043,0.20291 -0.13651,0.58546 -0.0103,0.11967 0.0333,0.2448 0,0.36027 -0.0336,0.11637 -0.13141,0.20506 -0.18201,0.31525 -0.10138,0.22079 -0.16344,0.45861 -0.27302,0.67553 -0.0717,0.14199 -1.06669,1.69804 -0.77354,1.89148 0.13593,0.0897 0.30722,0.1113 0.45503,0.18014 0.43995,0.20491 1.01297,0.45106 1.31957,0.85567 0.14203,0.18742 0.0486,0.14131 0.1365,0.31524 0.0245,0.0484 0.0738,0.0837 0.091,0.13511 0.0962,0.28567 -0.23434,0.56631 -0.45503,0.67552 -0.0406,0.0202 -0.0924,-0.011 -0.13651,0 -0.057,0.0141 -0.12548,0.11646 -0.18201,0.13511 -0.0288,0.009 -0.0623,-0.009 -0.091,0 -0.004,10e-4 -0.17883,0.35713 -0.18201,0.36028 -0.0364,0.036 -0.28931,0.13085 -0.36403,0.18014 -0.0604,0.0398 -0.39392,0.0746 -0.40952,0.0901 -0.0108,0.0106 0.0135,0.0383 0,0.0451 -0.0271,0.0134 -0.0639,-0.0134 -0.091,0 -0.0135,0.007 0.0108,0.0344 0,0.0451 -0.0566,0.056 -0.11441,0.0451 -0.18201,0.0451 -0.0152,0 -0.0607,0 -0.0455,0 0.24269,0 0.48537,0 0.72804,0 0.54693,0 1.09277,-0.006 1.63809,-0.0451 0.22221,0.0363 0.4236,-0.0689 0.63704,-0.0901 0.15093,-0.0149 0.30452,0.0186 0.45502,0 0.0476,-0.006 0.0885,-0.0451 0.13651,-0.0451 0.96153,0 0.0537,0.053 0.72804,0.0901 1.38228,0 -0.0107,-0.0296 0.81905,0.0451 0.55662,0.0501 1.12597,-0.0394 1.6836,0 0.50357,0.0356 0.99758,0.1074 1.50158,0.1351 0.69514,0.0382 1.39849,-0.0459 2.09311,0 0.0772,0.005 0.15049,0.0381 0.22751,0.0451 0.26689,0.0241 0.55093,0 0.81905,0 0.47019,0 0.94038,0 1.41057,0 0.0431,0 0.24554,0.0272 0.27303,0 0.0151,-0.0151 -0.0303,-0.03 -0.0455,-0.0451 -0.0128,-0.0127 8.2e-4,-0.17611 0,-0.18013 -0.066,-0.32651 0,-0.25136 0,-0.54043 0,-0.0913 -0.0389,-0.17913 -0.0455,-0.27021 -0.008,-0.11979 0,-0.24018 0,-0.36027 0,-0.36703 -0.059,-0.71565 -0.091,-1.08085 -0.0374,-0.42668 -0.0658,-0.83711 -0.091,-1.26098 -0.0509,-0.85559 -0.0446,0.0633 -0.091,-0.85568 -0.0913,-1.80773 -0.0831,-3.6409 0,-5.44925 0.028,-0.61103 0.0909,-1.23745 0.13651,-1.84645 0.0181,-0.24138 0.0736,-0.47912 0.091,-0.72056 0.0193,-0.26844 -0.0246,-0.54265 0,-0.81062 0.007,-0.0763 0.0303,-0.15013 0.0455,-0.22519 0.0152,-0.10507 0.0372,-0.2094 0.0455,-0.31524 0.0361,-0.46385 0.0195,-0.93159 0.0455,-1.39609 0.0127,-0.22658 0.0747,-0.44463 0.0455,-0.67553 -0.007,-0.0614 -0.0378,-0.11872 -0.0455,-0.18014 -0.0113,-0.0894 0.022,-0.18283 0,-0.27021 -0.0308,-0.12216 -0.0718,-0.22724 -0.091,-0.36028 -0.006,-0.0446 0.0418,-0.11737 0,-0.1351 -0.0975,-0.0414 -0.21234,0 -0.31851,0 z"
       id="path27" />
    <path
       style="fill:#959595;fill-opacity:1;stroke-width:0.264583"
       d="m 115.04789,38.541261 c 0.009,0.07927 0.0842,0.738011 0.1017,0.836466 0.008,0.04133 0.18794,1.31996 0.33246,1.498248 0.11644,0.143644 0.5594,0.0058 0.70472,0.05059 0.46584,0.143363 0.42857,0.295658 0.71334,0.578361 0.12693,0.126 0.26579,0.23942 0.40177,0.355566 0.0723,0.06177 0.14681,0.120958 0.22287,0.17799 0.0428,0.03211 0.10901,0.0417 0.13343,0.0892 0.30743,0.597911 -1.83731,1.43623 -1.50831,1.920712 0.23602,0.347564 0.63872,0.469229 0.97878,0.668802 0.51196,0.300455 1.01366,0.589065 1.46782,0.981211 0.28654,0.247412 0.53545,0.622565 0.67583,0.973779 0.0399,0.09998 0.0468,0.211367 0.0931,0.308693 0.18055,0.379292 0.52967,0.761568 0.85254,1.019411 0.22927,0.183091 0.45553,0.21303 0.75088,0.182945 0.10612,-0.01084 0.2115,-0.09289 0.30799,0.0029 0.29915,0.296969 0.11654,0.66139 0.19256,1.013218 0.0787,0.364214 0.1796,0.829112 0.3707,1.146811 0.0649,0.107814 0.17888,0.177576 0.26831,0.266365 0.10435,0.103585 0.19741,0.220021 0.31304,0.310758 0.25055,0.196598 0.62143,0.304643 0.92687,0.184597 0.13929,-0.05475 0.25458,-0.158035 0.3924,-0.216189 0.0903,-0.03812 0.82641,-0.267832 0.96296,-0.298783 0.18705,-0.04241 0.37764,-0.0844 0.57056,-0.08259 0.31184,0.0029 0.6262,0.09382 0.96942,0.09704 0.088,8.6e-4 0.17948,0.02483 0.264,0.0025 0.0821,-0.02172 0.13825,-0.100616 0.21784,-0.129879 0.041,-0.01506 0.0905,0.01476 0.132,0.0012 0.37996,-0.123709 0.6505,-0.456579 0.95647,-0.694612 0.17219,-0.133949 0.33606,-0.144331 0.47968,-0.259344 0.12513,-0.1002 0.006,-0.512992 -0.0101,-0.615735 -0.004,-0.02906 -0.002,-0.117283 -0.001,-0.08796 0.003,0.191784 -0.0248,0.01918 0.2236,0.22197 0.50779,0.414506 0.0267,0.124693 0.53591,0.488748 0.1586,0.113393 0.47206,0.252286 0.62247,0.40161 0.0288,0.02854 0.10613,0.148621 0.13488,0.177163 0.0856,0.08498 0.17198,0.19412 0.26832,0.266365 0.0265,0.01993 0.0651,0.02141 0.0887,0.04481 0.0328,0.0326 0.24285,0.267639 0.26903,0.310346 0.0246,0.03998 0.0107,0.101499 0.0462,0.132356 0.18704,0.163018 0.42608,0.158173 0.49046,0.400373 0.0586,0.220497 0.005,0.538462 -0.0758,0.746852 -0.0117,0.03032 -0.0878,0.01034 -0.0873,0.04315 7.5e-4,0.04636 0.0865,-0.03192 0.13127,-0.04274 0.0739,-0.01787 0.42177,-0.111641 0.48111,-0.171381 0.0321,-0.0323 -0.0126,-0.121436 0.0411,-0.175512 0.0216,-0.02178 0.11036,0.02302 0.132,0.0012 0.0102,-0.01027 -0.011,-0.03372 -7.2e-4,-0.04398 0.0204,-0.02055 0.062,0.0137 0.088,8.59e-4 0.046,-0.02279 0.0878,-0.0656 0.13056,-0.08672 0.0291,-0.01438 0.0134,-0.07316 0.0426,-0.08755 0.039,-0.01931 0.1014,0.03205 0.132,0.0012 0.0102,-0.01027 -0.011,-0.03372 -7.2e-4,-0.04398 0.0895,-0.09015 -0.002,0.139019 0.0873,-0.04315 0.0205,-0.04227 -0.0427,-0.107926 -0.0462,-0.132357 -0.0266,-0.187875 0.0172,-0.383882 -0.009,-0.571754 -0.008,-0.06005 -0.0384,-0.116288 -0.0469,-0.176338 -0.068,-0.481645 0.0209,-0.966972 -0.0678,-1.451788 -0.052,-0.284296 -0.0269,-0.548489 -0.0577,-0.836054 -0.006,-0.06025 -0.0392,-0.116198 -0.0469,-0.176339 -0.0847,-0.664508 0.002,-1.531702 0.052,-2.198227 0.0601,-0.805705 0.0688,-1.611069 0.13641,-2.417308 0.017,-0.203023 -0.0271,-0.412711 -0.0101,-0.615735 0.0344,-0.410524 0.0604,-0.824709 0.11186,-1.23023 0.0182,-0.143562 -0.0229,-0.295832 -0.007,-0.439811 0.0457,-0.420359 0.0432,-0.05189 0.0383,-0.351435 -0.0181,-1.106642 -0.0149,0.269754 0.0339,-0.615322 0.0231,-0.418935 -0.014,-0.854437 -0.0209,-1.275451 -0.001,-0.06681 0.0367,-0.38095 -0.0505,-0.396244 -0.24285,-0.04262 -0.50375,0.02573 -0.74799,-0.007 -0.0461,-0.0061 -0.0866,-0.03967 -0.13272,-0.04522 -0.4677,-0.05624 -0.94013,-0.02681 -1.4087,-0.0572 -0.10365,-0.0067 -0.20519,-0.03796 -0.30872,-0.04687 -0.51095,-0.04403 -1.02904,0.02957 -1.53999,-0.01445 -0.10353,-0.0089 -0.20518,-0.03796 -0.30871,-0.04687 -0.2773,-0.0239 -0.55884,0.01785 -0.83599,-0.0078 -0.37279,-0.03451 -0.7207,-0.07186 -1.10072,-0.05431 -0.0891,0.0041 -0.17431,0.03711 -0.26328,0.0415 -0.86121,0.0426 -1.73534,-0.07369 -2.59597,-0.02436 -0.95289,0.05462 -1.90226,0.142359 -2.85638,0.193064 -0.23396,0.01243 -0.47003,-0.01903 -0.704,-0.0066 -0.11789,0.0063 -0.23418,0.02712 -0.35127,0.04068 -0.21976,0.0126 -0.43913,0.03068 -0.65927,0.03779 -0.23431,0.0076 -0.4702,-0.02113 -0.70399,-0.0066 -0.20665,0.01278 -0.40802,0.06822 -0.61456,0.08218 -0.6207,0.04195 -1.26786,-0.0119 -1.89198,-0.01776 z"
       id="path28" />
  </g>
</svg>
